HIERARCHY
ROOT Hips
{
	OFFSET 200.325394 91.900726 -529.822571
	CHANNELS 6 Xposition Yposition Zposition Zrotation Yrotation Xrotation 
	JOINT LeftUpLeg
	{
		OFFSET 0.103461 1.857843 10.548505
		CHANNELS 3 Zrotation Yrotation Xrotation
		JOINT LeftLeg
		{
			OFFSET 43.500000 -0.000019 0.000004
			CHANNELS 3 Zrotation Yrotation Xrotation
			JOINT LeftFoot
			{
				OFFSET 42.372200 0.000000 -0.000006
				CHANNELS 3 Zrotation Yrotation Xrotation
				JOINT LeftToe
				{
					OFFSET 17.299971 -0.000010 0.000000
					CHANNELS 3 Zrotation Yrotation Xrotation
					End Site
					{
						OFFSET 0.000000 0.000000 0.000000
					}
				}
			}
		}
	}
	JOINT RightUpLeg
	{
		OFFSET 0.103458 1.857807 -10.548507
		CHANNELS 3 Zrotation Yrotation Xrotation
		JOINT RightLeg
		{
			OFFSET 43.500042 -0.000019 0.000008
			CHANNELS 3 Zrotation Yrotation Xrotation
			JOINT RightFoot
			{
				OFFSET 42.372253 0.000038 0.000015
				CHANNELS 3 Zrotation Yrotation Xrotation
				JOINT RightToe
				{
					OFFSET 17.299997 -0.000003 0.000002
					CHANNELS 3 Zrotation Yrotation Xrotation
					End Site
					{
						OFFSET 0.000000 0.000000 0.000000
					}
				}
			}
		}
	}
	JOINT Spine
	{
		OFFSET 6.901968 -2.603718 -0.000004
		CHANNELS 3 Zrotation Yrotation Xrotation
		JOINT Spine1
		{
			OFFSET 12.588099 -0.000002 -0.000004
			CHANNELS 3 Zrotation Yrotation Xrotation
			JOINT Spine2
			{
				OFFSET 12.343199 -0.000021 0.000011
				CHANNELS 3 Zrotation Yrotation Xrotation
				JOINT Neck
				{
					OFFSET 25.832893 -0.000019 0.000005
					CHANNELS 3 Zrotation Yrotation Xrotation
					JOINT Head
					{
						OFFSET 11.766620 0.000044 -0.000010
						CHANNELS 3 Zrotation Yrotation Xrotation
						End Site
						{
							OFFSET 0.000000 0.000000 0.000000
						}
					}
				}
				JOINT LeftShoulder
				{
					OFFSET 19.745899 -1.480341 6.000097
					CHANNELS 3 Zrotation Yrotation Xrotation
					JOINT LeftArm
					{
						OFFSET 11.284135 -0.000004 -0.000021
						CHANNELS 3 Zrotation Yrotation Xrotation
						JOINT LeftForeArm
						{
							OFFSET 33.000050 0.000003 0.000037
							CHANNELS 3 Zrotation Yrotation Xrotation
							JOINT LeftHand
							{
								OFFSET 25.200003 0.000046 -0.000005
								CHANNELS 3 Zrotation Yrotation Xrotation
								End Site
								{
									OFFSET 0.000000 0.000000 0.000000
								}
							}
						}
					}
				}
				JOINT RightShoulder
				{
					OFFSET 19.746103 -1.480375 -6.000072
					CHANNELS 3 Zrotation Yrotation Xrotation
					JOINT RightArm
					{
						OFFSET 11.284153 -0.000009 -0.000002
						CHANNELS 3 Zrotation Yrotation Xrotation
						JOINT RightForeArm
						{
							OFFSET 33.000084 -0.000018 0.000013
							CHANNELS 3 Zrotation Yrotation Xrotation
							JOINT RightHand
							{
								OFFSET 25.199766 0.000167 0.000417
								CHANNELS 3 Zrotation Yrotation Xrotation
								End Site
								{
									OFFSET 0.000000 0.000000 0.000000
								}
							}
						}
					}
				}
			}
		}
	}
}
MOTION
Frames: 8
Frame Time: 0.033333
226.407394 87.825897 -362.427307 93.145148 5.280249 84.993132 163.248064 -9.317187 169.486049 -100.245908 2.268572 2.255875 91.103850 -1.533590 0.456646 21.454560 0.003098 -0.000006 159.771416 5.632608 -178.307525 -43.420448 -0.318396 -8.277533 88.766190 5.069146 -3.589238 21.454555 -0.003101 -0.000019 9.373151 1.414663 -0.100599 8.734949 2.832774 -0.094202 8.416431 2.832298 -0.111324 3.844940 6.883094 1.982504 -39.774377 -14.570899 12.020092 -168.875007 -79.885626 -12.834985 -33.386371 54.996663 -16.723464 -84.472426 -12.053377 2.906098 -36.293119 -18.022929 57.319098 169.934574 68.546494 -9.105286 -28.504637 -42.384578 3.340083 -69.969708 19.559584 -2.846569 -11.815882 21.804689 -16.626653 
226.633194 90.457489 -362.486206 94.549523 4.854465 86.203585 156.065998 -8.019304 171.869321 -106.954902 2.356161 3.996969 86.035091 -2.314330 2.569674 21.454550 0.003089 -0.000002 164.317576 6.272397 179.690953 -33.703155 -0.326071 -6.443526 84.723483 4.022186 -2.123209 21.454557 -0.003106 -0.000016 9.562816 1.053736 0.118175 9.117221 2.094799 0.319039 8.798909 2.096826 0.306380 2.363505 5.879404 1.180120 -40.414455 -13.053364 10.279675 -162.585003 -81.259737 -19.212987 -38.901551 60.426643 -32.051038 -90.566546 -6.932951 2.815356 -41.334604 -23.606126 58.471317 166.589748 69.930291 -12.501258 -34.192842 -40.878798 -2.642303 -45.875020 21.859471 -2.105589 0.445537 23.094116 -2.170362 
227.125397 93.716957 -362.597198 96.230720 3.374035 89.013518 148.341641 -4.530901 173.189282 -104.915599 1.875537 6.000281 81.712743 -3.899613 1.416029 21.454550 0.003101 -0.000003 171.333984 6.984793 171.229291 -17.844195 0.545005 1.153700 76.374595 -0.387705 1.575574 21.454558 -0.003109 -0.000016 9.425171 0.763286 0.182188 8.841046 1.510354 0.422161 8.522832 1.512993 0.413047 -0.411828 3.194908 -0.510281 -37.815247 -11.949494 7.087620 -170.862086 -81.773477 -10.822015 -37.656110 62.814586 -35.420470 -94.037375 -3.267939 2.712983 -44.650241 -31.898216 56.188117 165.009843 69.995410 -14.124567 -37.593098 -38.497477 -6.454612 -25.327950 14.637534 -1.149800 8.654025 12.842701 -4.602905 
227.495697 95.869942 -362.547607 98.984010 1.088859 91.708001 141.049540 -0.830205 171.080871 -97.653448 0.979812 6.440400 79.970307 -4.765569 -0.953355 21.454562 0.003099 -0.000004 175.952735 9.290407 170.156459 -10.567349 2.107327 8.797360 73.104710 -5.191478 3.642020 21.454560 -0.003107 -0.000017 9.033674 0.137811 0.574861 8.055689 0.235267 1.157911 7.737669 0.242401 1.156468 -2.567530 -0.049318 -3.301917 -34.174763 -10.389954 2.223168 175.478024 -82.109713 3.005982 -33.761222 61.870347 -30.078784 -95.748577 -2.586251 2.741463 -45.318134 -35.913459 51.668622 160.178905 70.178882 -19.082888 -35.764749 -38.646563 -13.915449 -13.855848 9.394117 -0.682638 6.324015 -1.384563 -21.112567 
227.283295 96.664719 -362.464691 99.424325 0.452001 93.226700 136.695212 -0.970006 169.789063 -86.401135 -1.550860 6.020502 77.406732 -4.999273 -2.988507 21.454553 0.003093 -0.000003 177.828961 9.499397 178.341362 -17.173884 2.612426 0.473348 75.565593 0.212983 2.181841 21.454555 -0.003093 -0.000015 9.140939 -0.269601 1.367190 8.261649 -0.636043 2.711632 7.943913 -0.619531 2.715438 -4.080320 -1.759254 -5.891320 -33.074689 -7.832274 -2.325074 -179.112094 -83.211553 -2.488010 -34.227707 58.414182 -26.600216 -99.693742 -1.665919 2.852535 -50.461885 -39.734373 50.834602 151.985246 70.484847 -27.470818 -29.990985 -41.189101 -26.303369 -14.446899 10.132131 -0.734443 3.808023 -9.607050 -31.054107 
226.755493 96.258774 -362.024597 98.493466 1.167042 95.093787 135.578832 -1.709500 170.045592 -70.630276 -4.160226 5.069371 75.867282 -4.658805 -4.185297 21.454551 0.003090 0.000001 -178.667708 6.947500 -178.076023 -21.435787 0.831766 -3.041400 76.116161 2.476280 1.312945 21.454555 -0.003109 -0.000017 9.517163 -0.294389 1.913782 9.009468 -0.736867 3.798856 8.692100 -0.713774 3.803226 -4.002457 -3.319762 -7.595953 -33.565216 -5.323442 -5.753764 -174.515022 -80.961470 -7.113027 -33.007866 52.686734 -25.508906 -107.939918 0.005840 3.098936 -58.639291 -40.921036 55.304919 147.672446 71.021448 -31.849186 -24.554124 -43.585561 -34.709980 -18.935970 12.822750 -0.947852 0.360797 -2.182520 -25.646711 
226.598007 94.804657 -360.663208 97.033151 1.318131 97.469491 136.630858 -0.647205 170.719267 -50.056513 -4.486732 2.832051 74.232101 -4.205028 -7.744424 21.454553 0.003089 -0.000000 -175.519688 4.613094 178.903609 -20.254784 2.340677 -0.249660 78.737574 0.114248 0.115877 21.454557 -0.003106 -0.000018 9.535702 -0.244116 2.113182 9.046755 -0.652662 4.200823 8.729572 -0.627164 4.204680 -2.544387 -4.449467 -8.474388 -35.465358 -2.431590 -8.414711 -168.751940 -77.341920 -12.958029 -32.529804 46.897336 -27.602449 -117.150394 1.454028 3.390556 -59.387108 -39.955504 55.108398 150.821287 70.068158 -28.688417 -19.816120 -43.271690 -36.051613 -25.025825 14.396499 -1.129640 -0.227948 7.549534 -18.125032 
226.781204 93.131767 -359.335907 96.104791 1.995645 97.853320 140.814609 0.807912 170.346844 -25.982253 -1.903505 2.750038 71.907262 -4.500421 -8.090993 21.454555 0.003102 0.000004 -174.045911 4.066504 176.167108 -20.711879 4.684902 1.115821 83.344284 -1.402365 -2.332353 21.454558 -0.003108 -0.000019 9.619843 -0.179920 2.677419 9.213664 -0.572445 5.331968 8.897058 -0.540144 5.335331 -0.075125 -7.247090 -9.396528 -36.415468 0.299195 -11.371860 -162.801998 -74.593022 -19.056054 -36.130116 43.253460 -33.235772 -123.386807 1.875072 3.613871 -57.906159 -39.152813 53.149711 151.402112 71.010082 -28.035835 -15.690608 -44.507043 -33.934371 -31.431588 15.838280 -1.338328 0.520572 12.159176 -13.322579 
